#N canvas 4 64 1920 966 12;
#X obj -56 111 noise~;
#X obj -57 261 outlet~;
#X obj -56 174 *~ 100;
#X obj 129 124 hsl 162 19 1.27 160 0 0 empty empty empty -2 -10 0 12 #fcfcfc #000000 #000000 0 1;
#X connect 0 0 2 0;
#X connect 2 0 1 0;
#X connect 3 0 2 1;
#X coords 0 0 1 1 220 60 1 100 100;
