#N canvas 4 32 1920 966 12;
#X obj 759 258 inlet~;
#X obj 759 332 outlet~;
#X obj 759 282 *~;
#X obj 841 117 vsl 19 162 0 10 0 1 empty empty empty 0 -9 0 12 #fcfcfc #000000 #000000 9100 1;
#X obj 759 306 expr~ tanh($v1);
#X connect 0 0 2 0;
#X connect 2 0 4 0;
#X connect 3 0 2 1;
#X connect 4 0 1 0;
