#N canvas 1340 106 472 792 12;
#X obj 2 266 noise~;
#X obj 111 126 vsl 19 162 1.27 100 1 0 empty empty empty 0 -9 0 12 #fcfcfc #000000 #000000 0 1;
#X obj 1 416 outlet~;
#X obj 2 329 *~ 50;
#X connect 0 0 3 0;
#X connect 1 0 3 1;
#X connect 3 0 2 0;
#X coords 0 0 1 1 40 220 1 100 100;
