#N canvas 1197 17 574 593 12;
#X obj 116 111 inlet~;
#X obj 433 654 outlet~;
#X obj 164 511 +~;
#X obj 81 597 delwrite~ prof 1000;
#X obj 333 425 *~;
#X obj 332 235 vd~ prof;
#X obj 332 193 inlet;
#X obj 415 357 inlet;
#X obj 415 381 sig~;
#X text 385 195 delay (ms);
#X text 403 336 feedback;
#X obj 408 227 nbx 5 17 -1e+37 1e+37 0 0 empty empty empty 0 -10 0 12 #fcfcfc #000000 #000000 0 256;
#X obj 484 384 nbx 5 17 -1e+37 1e+37 0 0 empty empty empty 0 -10 0 12 #fcfcfc #000000 #000000 0 256;
#X connect 0 0 2 0;
#X connect 2 0 3 0;
#X connect 2 0 1 0;
#X connect 4 0 2 0;
#X connect 5 0 4 0;
#X connect 6 0 5 0;
#X connect 6 0 11 0;
#X connect 7 0 8 0;
#X connect 7 0 12 0;
#X connect 8 0 4 1;
