#N canvas 776 229 958 956 12;
#X obj 45 443 *~;
#X obj 111 125 vsl 19 162 0 0.5 0 0 empty empty empty 0 -9 0 12 #fcfcfc #000000 #000000 0 1;
#X obj 46 268 osc~;
#X obj 44 562 outlet~;
#X obj 46 83 inlet;
#X obj 46 130 sig~;
#X obj 46 176 +~;
#X obj 237 80 inlet~;
#X connect 0 0 3 0;
#X connect 1 0 0 1;
#X connect 2 0 0 0;
#X connect 4 0 5 0;
#X connect 5 0 6 0;
#X connect 6 0 2 0;
#X connect 7 0 2 0;
#X coords 0 -1 1 1 40 220 2 100 100;
