#N canvas 4 64 1920 966 12;
#X obj 814 221 osc_controlado_RGB;
#X floatatom 881 95 5 0 0 0 - - - 0;
#X obj 789 821 dac~;
#X obj 363 228 osc_controlado_RGB;
#X obj 506 227 osc_controlado_RGB;
#X obj 955 220 osc_controlado_RGB;
#X obj 1096 219 osc_controlado_RGB;
#X obj 219 228 osc_controlado_RGB;
#X obj 1451 280 vsl 19 162 0 0.5 0 0 empty empty empty 0 -9 0 12 #fcfcfc #000000 #000000 0 1;
#X obj 890 525 *~ 0;
#X floatatom 506 181 5 0 148 0 - - - 0;
#X obj 700 290 vsl 19 162 0 0.5 0 1 empty empty empty 0 -9 0 12 #fcfcfc #000000 #000000 9600 1;
#X obj 362 508 *~ 0;
#X text 231 155 R;
#X text 368 155 G;
#X text 516 156 B;
#X text 364 112 MIXER rgb;
#X obj 814 172 / 2;
#X obj 955 172 * 2;
#X floatatom 219 181 5 0 102 0 - - - 0;
#X floatatom 363 180 5 0 124 0 - - - 0;
#X text 897 8 ARMÓNICOS de Sombra \, Carácter y Brillo;
#X text 1397 246 Armonix mix level;
#X text 663 260 RGB mix level;
#X obj 1096 173 * 10;
#X obj 1236 219 osc_controlado_RGB;
#X obj 1236 173 * 12;
#X floatatom 1160 95 5 0 0 0 - - - 0;
#X text 872 56 freq A;
#X text 1147 56 freq B;
#X obj 1163 525 *~ 0;
#X obj 912 592 vsl 19 162 0 0.5 0 1 empty empty empty 0 -9 0 12 #fcfcfc #000000 #000000 8700 1;
#X obj 668 -12 obj-noise;
#X obj 42 582 obj-saturacion;
#X obj 41 611 *~ blend;
#X obj 272 778 +~ 0;
#X obj 804 765 *~ 0;
#X obj 182 612 expr 1-$f1;
#X obj 361 705 *~;
#X obj 185 581 hsl 162 19 0.01 1 0 0 empty empty empty -2 -10 0 12 #fcfcfc #000000 #000000 0 1;
#X connect 0 0 9 0;
#X connect 1 0 17 0;
#X connect 1 0 18 0;
#X connect 3 0 12 0;
#X connect 4 0 12 0;
#X connect 5 0 9 0;
#X connect 6 0 30 0;
#X connect 7 0 12 0;
#X connect 8 0 30 1;
#X connect 8 0 9 1;
#X connect 9 0 35 0;
#X connect 10 0 4 0;
#X connect 11 0 12 1;
#X connect 12 0 33 0;
#X connect 12 0 38 0;
#X connect 17 0 0 0;
#X connect 19 0 7 0;
#X connect 20 0 3 0;
#X connect 24 0 6 0;
#X connect 25 0 30 0;
#X connect 26 0 25 0;
#X connect 27 0 24 0;
#X connect 27 0 26 0;
#X connect 30 0 35 0;
#X connect 31 0 36 1;
#X connect 32 0 4 1;
#X connect 32 0 7 1;
#X connect 32 0 3 1;
#X connect 33 0 34 0;
#X connect 34 0 35 0;
#X connect 35 0 36 0;
#X connect 36 0 2 0;
#X connect 36 0 2 1;
#X connect 37 0 38 1;
#X connect 38 0 35 0;
#X connect 39 0 34 1;
#X connect 39 0 37 0;
#X coords 0 966 1 965 40 120 0;
