#N canvas 0 33 1920 966 12;
#X obj 814 125 osc_controlado_RGB;
#X floatatom 814 15 5 0 0 0 freq\ A - - 0;
#X obj 1015 922 dac~;
#X obj 594 126 osc_controlado_RGB;
#X obj 649 126 osc_controlado_RGB;
#X obj 870 125 osc_controlado_RGB;
#X obj 925 126 osc_controlado_RGB;
#X obj 539 126 osc_controlado_RGB;
#X obj 1035 182 vsl 19 162 0 0.5 0 0 empty empty CARACTER\ mix\ level 0 -9 0 12 #fcfcfc #000000 #000000 0 1;
#X obj 815 393 *~ 0;
#X floatatom 649 80 5 0 148 0 B - - 0;
#X obj 710 181 vsl 19 162 0 0.5 0 1 empty empty RGB\ mix\ level 0 -9 0 12 #fcfcfc #000000 #000000 11900 1;
#X obj 595 391 *~ 0;
#X floatatom 539 79 5 0 102 0 R - - 0;
#X floatatom 594 78 5 0 124 0 G - - 0;
#X obj 980 127 osc_controlado_RGB;
#X floatatom 925 15 5 0 0 0 freq\ B - - 0;
#X obj 926 392 *~ 0;
#X obj 1034 38 obj-noise;
#X obj 464 438 obj-saturacion;
#X obj 463 654 *~ blend;
#X obj 814 705 +~ 0;
#X obj 1016 866 *~ 0;
#X obj 552 654 expr 1-$f1;
#X obj 594 553 *~;
#X obj 1065 672 obj-profundidad;
#X obj 1215 707 expr 1-$f1;
#X obj 1016 811 +~ 0;
#X obj 1138 707 *~ depth;
#X obj 1015 766 *~;
#X obj 1132 465 vsl 19 162 0 5000 0 0 empty empty time\ delay 0 -9 0 12 #fcfcfc #000000 #000000 0 1;
#X obj 1167 485 vsl 19 162 0 1 0 0 empty empty feedback 0 -9 0 12 #fcfcfc #000000 #000000 0 1;
#X obj 516 474 vsl 19 162 0.01 1 0 0 empty empty SAT\ mix 0 -9 0 12 #fcfcfc #000000 #000000 0 1;
#X obj 1201 507 vsl 19 162 0.01 1 0 0 empty empty DLY\ mix 0 -9 0 12 #fcfcfc #000000 #000000 0 1;
#X obj 870 56 * 2;
#X obj 814 56 / 2;
#X obj 925 56 * 6;
#X obj 980 57 * 8;
#X obj 1079 830 hsl 162 19 0 0.5 0 0 empty empty MASTER\ out -2 -10 0 12 #fcfcfc #000000 #000000 0 1;
#X msg 115 67 open;
#X msg 177 66 close;
#X connect 0 0 9 0;
#X connect 1 0 35 0;
#X connect 3 0 12 0;
#X connect 4 0 12 0;
#X connect 5 0 9 0;
#X connect 6 0 17 0;
#X connect 7 0 12 0;
#X connect 8 0 17 1;
#X connect 8 0 9 1;
#X connect 9 0 21 0;
#X connect 10 0 4 0;
#X connect 11 0 12 1;
#X connect 12 0 19 0;
#X connect 12 0 24 0;
#X connect 13 0 7 0;
#X connect 14 0 3 0;
#X connect 15 0 17 0;
#X connect 16 0 34 0;
#X connect 16 0 36 0;
#X connect 16 0 37 0;
#X connect 17 0 21 0;
#X connect 18 0 15 1;
#X connect 18 0 6 1;
#X connect 18 0 5 1;
#X connect 18 0 0 1;
#X connect 19 0 20 0;
#X connect 20 0 21 0;
#X connect 21 0 25 0;
#X connect 21 0 29 0;
#X connect 22 0 2 0;
#X connect 22 0 2 1;
#X connect 23 0 24 1;
#X connect 24 0 21 0;
#X connect 25 0 28 0;
#X connect 26 0 29 1;
#X connect 27 0 22 0;
#X connect 28 0 27 0;
#X connect 29 0 27 0;
#X connect 30 0 25 1;
#X connect 31 0 25 2;
#X connect 32 0 20 1;
#X connect 32 0 23 0;
#X connect 33 0 28 1;
#X connect 33 0 26 0;
#X connect 34 0 5 0;
#X connect 35 0 0 0;
#X connect 36 0 6 0;
#X connect 37 0 15 0;
#X connect 38 0 22 1;
#X coords 0 966 1 965 40 120 0;
